Coordinates
version=1
nRows=10
nColumns=63
inDegrees=yes

Units are S.I. units (second, meters, Newtons, ...)
If the header above contains a line with 'inDegrees', this indicates whether rotational values are in degrees (yes) or radians (no).

endheader
time	pelvis_tilt	pelvis_list	pelvis_rotation	pelvis_tx	pelvis_ty	pelvis_tz	hip_flexion_r	hip_adduction_r	hip_rotation_r	knee_angle_r	knee_angle_r_beta	ankle_angle_r	subtalar_angle_r	mtp_angle_r	hip_flexion_l	hip_adduction_l	hip_rotation_l	knee_angle_l	knee_angle_l_beta	ankle_angle_l	subtalar_angle_l	mtp_angle_l	L5_S1_Flex_Ext	L5_S1_Lat_Bending	L5_S1_axial_rotation	L4_L5_Flex_Ext	L4_L5_Lat_Bending	L4_L5_axial_rotation	L3_L4_Flex_Ext	L3_L4_Lat_Bending	L3_L4_axial_rotation	L2_L3_Flex_Ext	L2_L3_Lat_Bending	L2_L3_axial_rotation	L1_L2_Flex_Ext	L1_L2_Lat_Bending	L1_L2_axial_rotation	L1_T12_Flex_Ext	L1_T12_Lat_Bending	L1_T12_axial_rotation	Abs_r3	Abs_r2	Abs_r1	Abs_t1	Abs_t2	neck_flexion	neck_bending	neck_rotation	arm_flex_r	arm_add_r	arm_rot_r	elbow_flex_r	pro_sup_r	wrist_flex_r	wrist_dev_r	arm_flex_l	arm_add_l	arm_rot_l	elbow_flex_l	pro_sup_l	wrist_flex_l	wrist_dev_l
      1.21666667	     -0.89435920	     -2.72310149	     90.75886733	      0.20972274	      0.82243747	      0.48192370	      3.08999025	     -5.04299676	    -13.55675047	     18.96105009	      0.33093275	     35.32635652	     11.19794624	      0.00000000	     -4.03834306	     -1.64280521	    -20.98713707	     10.26141117	      0.17909541	     34.15863542	     15.43593026	      0.00000000	     -0.03789342	      0.40214640	      0.51784367	     -0.07037188	      0.53485472	      0.55020890	     -0.06225511	      0.97777877	      0.55020890	     -0.04330840	      0.97777877	      0.45311321	     -0.03518783	      0.82005695	      0.42074798	     -0.02165230	      0.62292478	      0.38838275	     -0.27066895	      4.54916055	      2.88009113	      0.00000000	      0.00000000	      6.15516898	     -2.50023570	     -5.11314408	    -34.64540532	    -18.76931593	      2.28536839	    104.13941745	     87.00466888	      6.70764404	      3.40405055	      7.58621855	    -14.50442903	     28.69550700	    127.46998450	     83.92891675	     -8.16334373	      7.13803021
      1.23333333	     -1.21237685	     -2.73604754	     89.77787758	      0.21497470	      0.81971699	      0.47939451	      3.23321418	     -5.06620909	    -12.45541896	     19.11632504	      0.33364281	     36.31289468	     11.22924934	      0.00000000	     -4.15617101	     -1.50612418	    -21.85414448	     10.57007514	      0.18448261	     34.89688895	     15.13101378	      0.00000000	     -0.00057172	      0.34138604	      0.81839140	     -0.00106173	      0.45404343	      0.86954086	     -0.00093927	      0.83004601	      0.86954086	     -0.00065341	      0.83004601	      0.71609248	     -0.00053089	      0.69615441	      0.66494301	     -0.00032668	      0.52880697	      0.61379355	     -0.00408371	      3.86182713	      4.55164746	      0.00000000	      0.00000000	      6.20185212	     -2.00915033	     -5.92706470	    -30.90315765	    -17.00083986	      4.11624783	     97.92861614	     87.37787714	      9.38837519	      7.27032035	      5.13220553	    -14.36614544	     29.24781390	    119.72248851	     84.33594354	     -5.69386760	      4.84083465
      1.25000000	     -1.60585636	     -2.80415116	     89.17233031	      0.22030543	      0.81740501	      0.47733426	      3.36247765	     -5.17273224	    -11.79425825	     19.26006720	      0.33615159	     37.19556617	     11.26582860	      0.00000000	     -4.09028854	     -1.36437141	    -22.34088229	     10.99231610	      0.19185211	     35.43083584	     14.71916173	      0.00000000	      0.03723267	      0.26212932	      0.92418984	      0.06914480	      0.34863200	      0.98195170	      0.06116956	      0.63734124	      0.98195170	      0.04255322	      0.63734124	      0.80866611	      0.03457426	      0.53453412	      0.75090424	      0.02127475	      0.40603832	      0.69314238	      0.26594927	      2.96525934	      5.14006661	      0.00000000	      0.00000000	      5.86227225	     -1.10339116	     -6.24445997	    -26.22317160	    -15.84869985	      7.38821300	     91.02918789	     87.28217227	     10.56595756	     10.77843069	      2.44262661	    -14.44229425	     29.07460734	    111.98835119	     83.56698659	     -3.86686932	      5.79695117
      1.26666667	     -1.77157803	     -2.87184169	     88.96910928	      0.22518935	      0.81569569	      0.47598382	      3.37221634	     -4.97515711	    -11.12985989	     19.22265729	      0.33549866	     37.71326304	     10.69875592	      0.00000000	     -3.82563680	     -1.55506942	    -22.56382577	     11.70736612	      0.20433209	     35.89445298	     14.20537938	      0.00000000	      0.06854275	      0.22405685	      0.83459391	      0.12729074	      0.29799561	      0.88675603	      0.11260888	      0.54477183	      0.88675603	      0.07833751	      0.54477183	      0.73026967	      0.06364880	      0.45689673	      0.67810755	      0.03916533	      0.34706406	      0.62594543	      0.48959400	      2.53457591	      4.64176093	      0.00000000	      0.00000000	      5.03115125	     -0.66639186	     -5.16999159	    -21.01943405	    -15.30500811	     11.60278983	     84.32041857	     87.05307432	     10.94097510	     13.10712000	     -0.34871242	    -14.14439993	     27.41674754	    104.09514342	     80.78170195	      0.31555315	     10.00489552
      1.28333333	     -1.89901473	     -2.96706354	     88.93651954	      0.22988848	      0.81434370	      0.47556872	      3.41864402	     -4.78418267	    -10.76084073	     19.20071470	      0.33511569	     38.13477619	     10.53385846	      0.00000000	     -3.40891741	     -1.81938944	    -22.54126665	     12.55801197	      0.21917866	     36.17379371	     13.51824635	      0.00000000	      0.08739209	      0.19420257	      0.55100523	      0.16229586	      0.25828942	      0.58544305	      0.14357647	      0.47218412	      0.58544305	      0.09988042	      0.47218412	      0.48212957	      0.08115230	      0.39601788	      0.44769175	      0.04993584	      0.30081978	      0.41325392	      0.62423298	      2.19685829	      3.06452577	      0.00000000	      0.00000000	      4.28278665	     -0.10901735	     -3.06576803	    -15.28777234	    -15.46036385	     17.42692360	     78.64611057	     87.05088889	      9.59702892	     13.30480716	     -3.19343359	    -13.82155950	     25.34397821	     96.68307388	     78.43064527	      1.12772395	     13.44135870
      1.30000000	     -1.85407447	     -3.09172431	     89.12197098	      0.23427233	      0.81308323	      0.47591537	      3.46636010	     -4.41346272	    -10.54995652	     19.12228757	      0.33374688	     38.37667307	     10.36342945	      0.00000000	     -2.78248439	     -2.27993787	    -21.85353211	     13.64077299	      0.23807640	     36.39938162	     12.16312058	      0.00000000	      0.09436739	      0.18353579	      0.14355693	      0.17524969	      0.24410260	      0.15252923	      0.15503619	      0.44624893	      0.15252923	      0.10785249	      0.44624893	      0.12561231	      0.08762956	      0.37426619	      0.11664000	      0.05392153	      0.28429694	      0.10766769	      0.67405686	      2.07619359	      0.79842055	      0.00000000	      0.00000000	      3.86723155	      0.41616187	     -0.75652074	     -9.67609270	    -16.06916525	     24.17593817	     75.21803410	     87.41712403	      5.80401548	     11.45356205	     -6.00104545	    -13.47104518	     22.69571122	     90.23711670	     77.17594872	      1.73072305	     14.92146078
      1.31666667	     -1.73870219	     -3.33530891	     89.29959759	      0.23843030	      0.81171956	      0.47679303	      3.72054458	     -4.01570511	    -10.41515589	     19.14670205	      0.33417299	     38.54786084	     10.40742843	      0.00000000	     -1.95383076	     -2.76390270	    -20.71223887	     14.79808871	      0.25827537	     36.52767020	     10.20633441	      0.00000000	      0.10345009	      0.18368702	     -0.29896884	      0.19211716	      0.24430374	     -0.31765439	      0.16995815	      0.44661663	     -0.31765439	      0.11823310	      0.44661663	     -0.26159773	      0.09606375	      0.37457458	     -0.24291218	      0.05911138	      0.28453120	     -0.22422663	      0.73893362	      2.07790434	     -1.66277497	      0.00000000	      0.00000000	      3.85138015	      0.94231815	      1.79956968	     -4.66714185	    -16.73835414	     30.21293406	     74.49652824	     87.91732592	      1.56533908	      8.37363953	     -9.23303984	    -13.34736930	     19.79937836	     85.96292963	     78.05979953	      0.89245469	     13.37827672
      1.33333333	     -1.53591518	     -3.60853076	     89.52924189	      0.24247634	      0.81048557	      0.47786542	      4.03061993	     -3.53162060	    -10.29891930	     19.19571602	      0.33502845	     38.44089818	     10.28695510	      0.00000000	     -1.05770976	     -3.38545739	    -19.89589827	     16.01209939	      0.27946385	     36.55773831	      8.75059352	      0.00000000	      0.10987613	      0.19285816	     -0.71131625	      0.20405097	      0.25650135	     -0.75577352	      0.18051550	      0.46891533	     -0.75577352	      0.12557743	      0.46891533	     -0.62240172	      0.10203098	      0.39327636	     -0.57794445	      0.06278322	      0.29873729	     -0.53348719	      0.78483423	      2.18165006	     -3.95612759	      0.00000000	      0.00000000	      3.98312648	      1.64952204	      4.28268347	     -0.78245989	    -17.15321576	     33.89031549	     76.39542486	     88.24701807	     -1.65571846	      4.87649141	    -13.04733010	    -13.65243459	     16.90466824	     84.34409396	     79.60262578	     -0.37226652	      9.36920401
      1.35000000	     -1.29640861	     -4.04979544	     89.85006650	      0.24603814	      0.80926504	      0.47928717	      4.54887290	     -3.04351884	    -10.20887028	     19.29211302	      0.33671089	     38.21119210	     10.01742546	      0.00000000	      0.11666116	     -4.00246568	    -18.72777748	     17.31288006	      0.30216676	     36.50824600	      7.00460918	      0.00000000	      0.14128614	      0.19949052	     -1.01251342	      0.26238249	      0.26532239	     -1.07579551	      0.23211900	      0.48504125	     -1.07579551	      0.16147593	      0.48504125	     -0.88594924	      0.13119831	      0.40680106	     -0.82266716	      0.08073090	      0.30901081	     -0.75938507	      1.00919278	      2.25667664	     -5.63129590	      0.00000000	      0.00000000	      4.17633735	      2.52893498	      5.35980939	      1.77361235	    -17.35040384	     34.75855524	     80.46847966	     88.16041942	     -4.49612595	      1.82210753	    -17.39030879	    -14.35914852	     14.12493998	     85.38559478	     81.97272176	     -1.32003256	      4.10238789
      1.36666667	     -1.03553428	     -4.37841989	     90.38353723	      0.24915291	      0.80861066	      0.48092265	      4.87482711	     -2.52009346	    -10.05018051	     19.27255307	      0.33636951	     37.70088771	      9.32130579	      0.00000000	      1.24257966	     -4.44199486	    -16.36168868	     18.48965061	      0.32270528	     36.04728133	      3.92402167	      0.00000000	      0.16267650	      0.20266743	     -1.25305104	      0.30210652	      0.26954769	     -1.33136673	      0.26726122	      0.49276560	     -1.33136673	      0.18592297	      0.49276560	     -1.09641966	      0.15106139	      0.41327943	     -1.01810397	      0.09295335	      0.31393185	     -0.93978828	      1.16198195	      2.29261454	     -6.96909396	      0.00000000	      0.00000000	      4.22795754	      3.27148800	      5.64224513	      3.58646006	    -17.27206032	     33.38024741	     85.88040313	     87.49772569	     -5.97186278	      0.86926477	    -22.15056825	    -15.43880544	     11.43471022	     88.54309953	     84.21841137	     -2.21435721	     -1.60754245
